# xmcd
#
# Track frame offsets: 
#        150
#        17907
#        39235
#        69495
#
# Disc length: 1202 seconds
#
# Revision: 11
# Processed by: cddbd v1.5.2PL0 Copyright (c) Steve Scherf et al.
# Submitted via: ExactAudioCopy v1.3
#
DISCID=2a04b004
DTITLE=Craig David - 7 Days
DYEAR=2000
DGENRE=R&B
TTITLE0=7 Days (Radio Edit)
TTITLE1=7 Days (Full Crew Radio Mix)
TTITLE2=7 Days (Sunship Vocal Mix)
TTITLE3=7 Days (Full Crew Club Mix) (feat. MDK)
EXTD=ID3G:  32
EXTT0=
EXTT1=
EXTT2=
EXTT3=
PLAYORDER=
